<svg width="23" height="23" viewBox="0 0 23 23" fill="none" xmlns="http://www.w3.org/2000/svg">
<g clip-path="url(#clip0_103_314)">
<path d="M8.625 1.4375V5.75H1.4375V1.4375H8.625ZM1.4375 0C1.05625 0 0.690618 0.15145 0.421034 0.421034C0.15145 0.690618 0 1.05625 0 1.4375L0 5.75C0 6.13125 0.15145 6.49688 0.421034 6.76647C0.690618 7.03605 1.05625 7.1875 1.4375 7.1875H8.625C9.00625 7.1875 9.37188 7.03605 9.64147 6.76647C9.91105 6.49688 10.0625 6.13125 10.0625 5.75V1.4375C10.0625 1.05625 9.91105 0.690618 9.64147 0.421034C9.37188 0.15145 9.00625 0 8.625 0L1.4375 0ZM21.5625 17.25V21.5625H14.375V17.25H21.5625ZM14.375 15.8125C13.9938 15.8125 13.6281 15.964 13.3585 16.2335C13.089 16.5031 12.9375 16.8688 12.9375 17.25V21.5625C12.9375 21.9437 13.089 22.3094 13.3585 22.579C13.6281 22.8485 13.9938 23 14.375 23H21.5625C21.9437 23 22.3094 22.8485 22.579 22.579C22.8485 22.3094 23 21.9437 23 21.5625V17.25C23 16.8688 22.8485 16.5031 22.579 16.2335C22.3094 15.964 21.9437 15.8125 21.5625 15.8125H14.375ZM8.625 11.5V21.5625H1.4375V11.5H8.625ZM1.4375 10.0625C1.05625 10.0625 0.690618 10.214 0.421034 10.4835C0.15145 10.7531 0 11.1188 0 11.5L0 21.5625C0 21.9437 0.15145 22.3094 0.421034 22.579C0.690618 22.8485 1.05625 23 1.4375 23H8.625C9.00625 23 9.37188 22.8485 9.64147 22.579C9.91105 22.3094 10.0625 21.9437 10.0625 21.5625V11.5C10.0625 11.1188 9.91105 10.7531 9.64147 10.4835C9.37188 10.214 9.00625 10.0625 8.625 10.0625H1.4375ZM21.5625 1.4375V11.5H14.375V1.4375H21.5625ZM14.375 0C13.9938 0 13.6281 0.15145 13.3585 0.421034C13.089 0.690618 12.9375 1.05625 12.9375 1.4375V11.5C12.9375 11.8812 13.089 12.2469 13.3585 12.5165C13.6281 12.786 13.9938 12.9375 14.375 12.9375H21.5625C21.9437 12.9375 22.3094 12.786 22.579 12.5165C22.8485 12.2469 23 11.8812 23 11.5V1.4375C23 1.05625 22.8485 0.690618 22.579 0.421034C22.3094 0.15145 21.9437 0 21.5625 0L14.375 0Z" fill="white"/>
</g>
<defs>
<clipPath id="clip0_103_314">
<rect width="23" height="23" fill="white"/>
</clipPath>
</defs>
</svg>
