<svg width="26" height="26" viewBox="0 0 26 26" fill="none" xmlns="http://www.w3.org/2000/svg">
<path fill-rule="evenodd" clip-rule="evenodd" d="M13 5.35113L22.75 15.1011V21.9375C22.75 22.584 22.4932 23.204 22.0361 23.6611C21.579 24.1182 20.959 24.375 20.3125 24.375H5.6875C5.04103 24.375 4.42105 24.1182 3.96393 23.6611C3.50681 23.204 3.25 22.584 3.25 21.9375V15.1011L13 5.35113ZM21.125 4.0625V9.75L17.875 6.5V4.0625C17.875 3.84701 17.9606 3.64035 18.113 3.48798C18.2653 3.3356 18.472 3.25 18.6875 3.25H20.3125C20.528 3.25 20.7347 3.3356 20.887 3.48798C21.0394 3.64035 21.125 3.84701 21.125 4.0625Z" fill="white"/>
<path fill-rule="evenodd" clip-rule="evenodd" d="M11.8512 2.43751C12.1559 2.13287 12.5692 1.96173 13.0001 1.96173C13.4309 1.96173 13.8442 2.13287 14.1489 2.43751L24.9503 13.2373C25.1029 13.3898 25.1886 13.5967 25.1886 13.8125C25.1886 14.0283 25.1029 14.2352 24.9503 14.3878C24.7977 14.5403 24.5908 14.626 24.375 14.626C24.1593 14.626 23.9524 14.5403 23.7998 14.3878L13.0001 3.58638L2.2003 14.3878C2.04773 14.5403 1.84081 14.626 1.62505 14.626C1.40929 14.626 1.20237 14.5403 1.0498 14.3878C0.897234 14.2352 0.811523 14.0283 0.811523 13.8125C0.811523 13.5967 0.897234 13.3898 1.0498 13.2373L11.8512 2.43751Z" fill="white"/>
</svg>
