<svg width="26" height="26" viewBox="0 0 26 26" fill="none" xmlns="http://www.w3.org/2000/svg">
<path fill-rule="evenodd" clip-rule="evenodd" d="M3.25 4.0625C3.03451 4.0625 2.82785 4.1481 2.67548 4.30048C2.5231 4.45285 2.4375 4.65951 2.4375 4.875V6.5C2.4375 6.71549 2.5231 6.92215 2.67548 7.07452C2.82785 7.2269 3.03451 7.3125 3.25 7.3125H4.875C5.09049 7.3125 5.29715 7.2269 5.44952 7.07452C5.6019 6.92215 5.6875 6.71549 5.6875 6.5V4.875C5.6875 4.65951 5.6019 4.45285 5.44952 4.30048C5.29715 4.1481 5.09049 4.0625 4.875 4.0625H3.25ZM4.875 4.875H3.25V6.5H4.875V4.875Z" fill="#00C8B8"/>
<path d="M8.125 5.6875C8.125 5.47201 8.2106 5.26535 8.36298 5.11298C8.51535 4.9606 8.72201 4.875 8.9375 4.875H23.5625C23.778 4.875 23.9847 4.9606 24.137 5.11298C24.2894 5.26535 24.375 5.47201 24.375 5.6875C24.375 5.90299 24.2894 6.10965 24.137 6.26202C23.9847 6.4144 23.778 6.5 23.5625 6.5H8.9375C8.72201 6.5 8.51535 6.4144 8.36298 6.26202C8.2106 6.10965 8.125 5.90299 8.125 5.6875ZM8.9375 11.375C8.72201 11.375 8.51535 11.4606 8.36298 11.613C8.2106 11.7653 8.125 11.972 8.125 12.1875C8.125 12.403 8.2106 12.6097 8.36298 12.762C8.51535 12.9144 8.72201 13 8.9375 13H23.5625C23.778 13 23.9847 12.9144 24.137 12.762C24.2894 12.6097 24.375 12.403 24.375 12.1875C24.375 11.972 24.2894 11.7653 24.137 11.613C23.9847 11.4606 23.778 11.375 23.5625 11.375H8.9375ZM8.9375 17.875C8.72201 17.875 8.51535 17.9606 8.36298 18.113C8.2106 18.2653 8.125 18.472 8.125 18.6875C8.125 18.903 8.2106 19.1097 8.36298 19.262C8.51535 19.4144 8.72201 19.5 8.9375 19.5H23.5625C23.778 19.5 23.9847 19.4144 24.137 19.262C24.2894 19.1097 24.375 18.903 24.375 18.6875C24.375 18.472 24.2894 18.2653 24.137 18.113C23.9847 17.9606 23.778 17.875 23.5625 17.875H8.9375Z" fill="#00C8B8"/>
<path fill-rule="evenodd" clip-rule="evenodd" d="M2.4375 11.375C2.4375 11.1595 2.5231 10.9528 2.67548 10.8005C2.82785 10.6481 3.03451 10.5625 3.25 10.5625H4.875C5.09049 10.5625 5.29715 10.6481 5.44952 10.8005C5.6019 10.9528 5.6875 11.1595 5.6875 11.375V13C5.6875 13.2155 5.6019 13.4222 5.44952 13.5745C5.29715 13.7269 5.09049 13.8125 4.875 13.8125H3.25C3.03451 13.8125 2.82785 13.7269 2.67548 13.5745C2.5231 13.4222 2.4375 13.2155 2.4375 13V11.375ZM3.25 11.375H4.875V13H3.25V11.375ZM3.25 17.0625C3.03451 17.0625 2.82785 17.1481 2.67548 17.3005C2.5231 17.4528 2.4375 17.6595 2.4375 17.875V19.5C2.4375 19.7155 2.5231 19.9222 2.67548 20.0745C2.82785 20.2269 3.03451 20.3125 3.25 20.3125H4.875C5.09049 20.3125 5.29715 20.2269 5.44952 20.0745C5.6019 19.9222 5.6875 19.7155 5.6875 19.5V17.875C5.6875 17.6595 5.6019 17.4528 5.44952 17.3005C5.29715 17.1481 5.09049 17.0625 4.875 17.0625H3.25ZM4.875 17.875H3.25V19.5H4.875V17.875Z" fill="#00C8B8"/>
</svg>
